<mxfile host="Electron" modified="2024-09-13T14:20:28.721Z" agent="Mozilla/5.0 (Macintosh; Intel Mac OS X 10_15_7) AppleWebKit/537.36 (KHTML, like Gecko) draw.io/23.0.2 Chrome/120.0.6099.109 Electron/28.1.0 Safari/537.36" etag="E22zYgv4q4GsiRvpj_Ag" version="23.0.2" type="device">
  <diagram id="nPAHsuBVC_biOXkHt-TI" name="Page-1">
    <mxGraphModel dx="2462" dy="1056" grid="1" gridSize="10" guides="1" tooltips="1" connect="1" arrows="1" fold="1" page="1" pageScale="1" pageWidth="1400" pageHeight="700" math="0" shadow="0">
      <root>
        <mxCell id="0" />
        <mxCell id="1" parent="0" />
        <mxCell id="zbQwqUg-gE2fyg_XoSbR-26" value="" style="rounded=1;whiteSpace=wrap;html=1;fillColor=none;dashed=1;strokeWidth=1;" vertex="1" parent="1">
          <mxGeometry x="370" y="310" width="220" height="150" as="geometry" />
        </mxCell>
        <mxCell id="zbQwqUg-gE2fyg_XoSbR-27" value="Market Return Prediction Team" style="text;html=1;strokeColor=none;fillColor=none;align=center;verticalAlign=middle;whiteSpace=wrap;rounded=0;fontSize=12;fontStyle=1" vertex="1" parent="1">
          <mxGeometry x="383" y="460" width="195" height="15" as="geometry" />
        </mxCell>
        <mxCell id="zbQwqUg-gE2fyg_XoSbR-24" value="" style="rounded=1;whiteSpace=wrap;html=1;fillColor=none;dashed=1;strokeWidth=1;" vertex="1" parent="1">
          <mxGeometry x="370" y="140" width="220" height="150" as="geometry" />
        </mxCell>
        <mxCell id="4uCfkH4DtkvcoPHmmcRs-1" value="" style="sketch=0;pointerEvents=1;shadow=0;dashed=0;html=1;strokeColor=none;labelPosition=center;verticalLabelPosition=bottom;verticalAlign=top;align=center;fillColor=#505050;shape=mxgraph.mscae.intune.account_portal" vertex="1" parent="1">
          <mxGeometry x="450" y="150" width="43" height="50" as="geometry" />
        </mxCell>
        <mxCell id="4uCfkH4DtkvcoPHmmcRs-2" value="" style="sketch=0;pointerEvents=1;shadow=0;dashed=0;html=1;strokeColor=none;labelPosition=center;verticalLabelPosition=bottom;verticalAlign=top;align=center;fillColor=#505050;shape=mxgraph.mscae.intune.account_portal" vertex="1" parent="1">
          <mxGeometry x="450" y="220" width="43" height="50" as="geometry" />
        </mxCell>
        <mxCell id="4uCfkH4DtkvcoPHmmcRs-3" value="" style="sketch=0;pointerEvents=1;shadow=0;dashed=0;html=1;strokeColor=none;labelPosition=center;verticalLabelPosition=bottom;verticalAlign=top;align=center;fillColor=#505050;shape=mxgraph.mscae.intune.account_portal" vertex="1" parent="1">
          <mxGeometry x="455" y="388" width="43" height="50" as="geometry" />
        </mxCell>
        <mxCell id="4uCfkH4DtkvcoPHmmcRs-4" value="Agent 1" style="text;html=1;strokeColor=none;fillColor=none;align=center;verticalAlign=middle;whiteSpace=wrap;rounded=0;fontSize=14;" vertex="1" parent="1">
          <mxGeometry x="434.12" y="207.5" width="70" as="geometry" />
        </mxCell>
        <mxCell id="4uCfkH4DtkvcoPHmmcRs-5" value="Agent 1" style="text;html=1;strokeColor=none;fillColor=none;align=center;verticalAlign=middle;whiteSpace=wrap;rounded=0;fontSize=14;" vertex="1" parent="1">
          <mxGeometry x="436.5" y="272.5" width="65.25" height="10" as="geometry" />
        </mxCell>
        <mxCell id="4uCfkH4DtkvcoPHmmcRs-6" value="Agent i" style="text;html=1;strokeColor=none;fillColor=none;align=center;verticalAlign=middle;whiteSpace=wrap;rounded=0;fontSize=14;" vertex="1" parent="1">
          <mxGeometry x="440.25" y="438" width="52.75" height="10" as="geometry" />
        </mxCell>
        <mxCell id="4uCfkH4DtkvcoPHmmcRs-7" value="" style="shape=datastore;whiteSpace=wrap;html=1;" vertex="1" parent="1">
          <mxGeometry x="317" y="282" width="40" height="40" as="geometry" />
        </mxCell>
        <mxCell id="4uCfkH4DtkvcoPHmmcRs-9" style="edgeStyle=orthogonalEdgeStyle;rounded=1;orthogonalLoop=1;jettySize=auto;html=1;exitX=1;exitY=0.5;exitDx=0;exitDy=0;entryX=0.06;entryY=0.65;entryDx=0;entryDy=0;entryPerimeter=0;curved=0;" edge="1" parent="1" source="4uCfkH4DtkvcoPHmmcRs-7" target="4uCfkH4DtkvcoPHmmcRs-1">
          <mxGeometry relative="1" as="geometry">
            <Array as="points">
              <mxPoint x="390" y="302" />
              <mxPoint x="390" y="183" />
              <mxPoint x="453" y="183" />
            </Array>
          </mxGeometry>
        </mxCell>
        <mxCell id="4uCfkH4DtkvcoPHmmcRs-10" style="edgeStyle=orthogonalEdgeStyle;rounded=1;orthogonalLoop=1;jettySize=auto;html=1;exitX=1;exitY=0.5;exitDx=0;exitDy=0;entryX=0.06;entryY=0.65;entryDx=0;entryDy=0;entryPerimeter=0;curved=0;" edge="1" parent="1" source="4uCfkH4DtkvcoPHmmcRs-7" target="4uCfkH4DtkvcoPHmmcRs-2">
          <mxGeometry relative="1" as="geometry">
            <Array as="points">
              <mxPoint x="420" y="302" />
              <mxPoint x="420" y="253" />
            </Array>
          </mxGeometry>
        </mxCell>
        <mxCell id="4uCfkH4DtkvcoPHmmcRs-11" style="edgeStyle=orthogonalEdgeStyle;rounded=1;orthogonalLoop=1;jettySize=auto;html=1;exitX=1;exitY=0.5;exitDx=0;exitDy=0;entryX=0.06;entryY=0.65;entryDx=0;entryDy=0;entryPerimeter=0;curved=0;" edge="1" parent="1" source="4uCfkH4DtkvcoPHmmcRs-7" target="4uCfkH4DtkvcoPHmmcRs-3">
          <mxGeometry relative="1" as="geometry">
            <Array as="points">
              <mxPoint x="390" y="302" />
              <mxPoint x="390" y="420" />
              <mxPoint x="453" y="420" />
            </Array>
          </mxGeometry>
        </mxCell>
        <mxCell id="4uCfkH4DtkvcoPHmmcRs-12" value="" style="sketch=0;pointerEvents=1;shadow=0;dashed=0;html=1;strokeColor=none;labelPosition=center;verticalLabelPosition=bottom;verticalAlign=top;align=center;fillColor=#505050;shape=mxgraph.mscae.intune.account_portal;fontColor=#ffffff;" vertex="1" parent="1">
          <mxGeometry x="600" y="270" width="43" height="50" as="geometry" />
        </mxCell>
        <mxCell id="4uCfkH4DtkvcoPHmmcRs-17" style="edgeStyle=orthogonalEdgeStyle;rounded=1;orthogonalLoop=1;jettySize=auto;html=1;exitX=0.94;exitY=0.65;exitDx=0;exitDy=0;exitPerimeter=0;entryX=0.06;entryY=0.65;entryDx=0;entryDy=0;entryPerimeter=0;curved=0;" edge="1" parent="1" source="4uCfkH4DtkvcoPHmmcRs-1" target="4uCfkH4DtkvcoPHmmcRs-12">
          <mxGeometry relative="1" as="geometry">
            <Array as="points">
              <mxPoint x="570" y="183" />
              <mxPoint x="570" y="303" />
            </Array>
          </mxGeometry>
        </mxCell>
        <mxCell id="4uCfkH4DtkvcoPHmmcRs-19" style="edgeStyle=orthogonalEdgeStyle;rounded=1;orthogonalLoop=1;jettySize=auto;html=1;exitX=0.94;exitY=0.65;exitDx=0;exitDy=0;exitPerimeter=0;entryX=0.06;entryY=0.65;entryDx=0;entryDy=0;entryPerimeter=0;curved=0;" edge="1" parent="1" source="4uCfkH4DtkvcoPHmmcRs-2" target="4uCfkH4DtkvcoPHmmcRs-12">
          <mxGeometry relative="1" as="geometry">
            <Array as="points">
              <mxPoint x="540" y="253" />
              <mxPoint x="540" y="303" />
            </Array>
          </mxGeometry>
        </mxCell>
        <mxCell id="4uCfkH4DtkvcoPHmmcRs-20" style="edgeStyle=orthogonalEdgeStyle;rounded=1;orthogonalLoop=1;jettySize=auto;html=1;exitX=0.94;exitY=0.65;exitDx=0;exitDy=0;exitPerimeter=0;entryX=0.06;entryY=0.65;entryDx=0;entryDy=0;entryPerimeter=0;curved=0;" edge="1" parent="1" source="4uCfkH4DtkvcoPHmmcRs-3" target="4uCfkH4DtkvcoPHmmcRs-12">
          <mxGeometry relative="1" as="geometry">
            <Array as="points">
              <mxPoint x="570" y="421" />
              <mxPoint x="570" y="303" />
            </Array>
          </mxGeometry>
        </mxCell>
        <mxCell id="4uCfkH4DtkvcoPHmmcRs-21" value="Router" style="text;html=1;strokeColor=none;fillColor=none;align=center;verticalAlign=middle;whiteSpace=wrap;rounded=0;fontSize=14;" vertex="1" parent="1">
          <mxGeometry x="598.75" y="322" width="45.5" height="10" as="geometry" />
        </mxCell>
        <mxCell id="4uCfkH4DtkvcoPHmmcRs-24" value="Database" style="text;html=1;strokeColor=none;fillColor=none;align=center;verticalAlign=middle;whiteSpace=wrap;rounded=0;fontSize=14;" vertex="1" parent="1">
          <mxGeometry x="307" y="322" width="60" height="20" as="geometry" />
        </mxCell>
        <mxCell id="4uCfkH4DtkvcoPHmmcRs-27" value="Text" style="text;html=1;strokeColor=none;fillColor=none;align=center;verticalAlign=middle;whiteSpace=wrap;rounded=0;fontSize=12;" vertex="1" parent="1">
          <mxGeometry x="411.5" y="167.5" width="25" height="15" as="geometry" />
        </mxCell>
        <mxCell id="4uCfkH4DtkvcoPHmmcRs-28" value="Vision" style="text;html=1;strokeColor=none;fillColor=none;align=center;verticalAlign=middle;whiteSpace=wrap;rounded=0;fontSize=12;" vertex="1" parent="1">
          <mxGeometry x="411.5" y="235" width="25" height="15" as="geometry" />
        </mxCell>
        <mxCell id="4uCfkH4DtkvcoPHmmcRs-29" value="Multimodal&lt;br style=&quot;font-size: 12px;&quot;&gt;data" style="text;html=1;strokeColor=none;fillColor=none;align=center;verticalAlign=middle;whiteSpace=wrap;rounded=0;fontSize=12;" vertex="1" parent="1">
          <mxGeometry x="409.75" y="398" width="38.5" height="15" as="geometry" />
        </mxCell>
        <mxCell id="r50jw1Dnq2g4zd5aawGc-7" value="Prediction" style="text;html=1;strokeColor=none;fillColor=none;align=center;verticalAlign=middle;whiteSpace=wrap;rounded=0;fontSize=12;" vertex="1" parent="1">
          <mxGeometry x="498" y="172.5" width="62" height="5" as="geometry" />
        </mxCell>
        <mxCell id="zbQwqUg-gE2fyg_XoSbR-18" value="" style="sketch=0;pointerEvents=1;shadow=0;dashed=0;html=1;strokeColor=none;labelPosition=center;verticalLabelPosition=bottom;verticalAlign=top;align=center;fillColor=#505050;shape=mxgraph.mscae.intune.account_portal" vertex="1" parent="1">
          <mxGeometry x="450" y="312.5" width="43" height="50" as="geometry" />
        </mxCell>
        <mxCell id="zbQwqUg-gE2fyg_XoSbR-19" value="Agent i-1" style="text;html=1;strokeColor=none;fillColor=none;align=center;verticalAlign=middle;whiteSpace=wrap;rounded=0;fontSize=14;" vertex="1" parent="1">
          <mxGeometry x="434.75" y="365" width="65.25" height="10" as="geometry" />
        </mxCell>
        <mxCell id="zbQwqUg-gE2fyg_XoSbR-20" value="Audio" style="text;html=1;strokeColor=none;fillColor=none;align=center;verticalAlign=middle;whiteSpace=wrap;rounded=0;fontSize=12;" vertex="1" parent="1">
          <mxGeometry x="409.75" y="347.5" width="25" height="15" as="geometry" />
        </mxCell>
        <mxCell id="zbQwqUg-gE2fyg_XoSbR-22" style="edgeStyle=orthogonalEdgeStyle;rounded=1;orthogonalLoop=1;jettySize=auto;html=1;exitX=1;exitY=0.5;exitDx=0;exitDy=0;entryX=0.06;entryY=0.65;entryDx=0;entryDy=0;entryPerimeter=0;curved=0;" edge="1" parent="1" source="4uCfkH4DtkvcoPHmmcRs-7" target="zbQwqUg-gE2fyg_XoSbR-18">
          <mxGeometry relative="1" as="geometry">
            <Array as="points">
              <mxPoint x="420" y="302" />
              <mxPoint x="420" y="345" />
            </Array>
          </mxGeometry>
        </mxCell>
        <mxCell id="zbQwqUg-gE2fyg_XoSbR-23" style="edgeStyle=orthogonalEdgeStyle;rounded=1;orthogonalLoop=1;jettySize=auto;html=1;exitX=0.94;exitY=0.65;exitDx=0;exitDy=0;exitPerimeter=0;entryX=0.06;entryY=0.65;entryDx=0;entryDy=0;entryPerimeter=0;curved=0;" edge="1" parent="1" source="zbQwqUg-gE2fyg_XoSbR-18" target="4uCfkH4DtkvcoPHmmcRs-12">
          <mxGeometry relative="1" as="geometry">
            <Array as="points">
              <mxPoint x="540" y="345" />
              <mxPoint x="540" y="303" />
            </Array>
          </mxGeometry>
        </mxCell>
        <mxCell id="zbQwqUg-gE2fyg_XoSbR-25" value="Cross-sectional Prediction Team" style="text;html=1;strokeColor=none;fillColor=none;align=center;verticalAlign=middle;whiteSpace=wrap;rounded=0;fontSize=12;fontStyle=1" vertex="1" parent="1">
          <mxGeometry x="383" y="125" width="195" height="15" as="geometry" />
        </mxCell>
        <mxCell id="zbQwqUg-gE2fyg_XoSbR-28" value="Prediction" style="text;html=1;strokeColor=none;fillColor=none;align=center;verticalAlign=middle;whiteSpace=wrap;rounded=0;fontSize=12;" vertex="1" parent="1">
          <mxGeometry x="498" y="242.5" width="62" height="5" as="geometry" />
        </mxCell>
        <mxCell id="zbQwqUg-gE2fyg_XoSbR-29" value="Prediction" style="text;html=1;strokeColor=none;fillColor=none;align=center;verticalAlign=middle;whiteSpace=wrap;rounded=0;fontSize=12;" vertex="1" parent="1">
          <mxGeometry x="498" y="352.5" width="62" height="5" as="geometry" />
        </mxCell>
        <mxCell id="zbQwqUg-gE2fyg_XoSbR-30" value="Prediction" style="text;html=1;strokeColor=none;fillColor=none;align=center;verticalAlign=middle;whiteSpace=wrap;rounded=0;fontSize=12;" vertex="1" parent="1">
          <mxGeometry x="500" y="430" width="62" height="5" as="geometry" />
        </mxCell>
        <mxCell id="zbQwqUg-gE2fyg_XoSbR-31" value="" style="endArrow=none;dashed=1;html=1;dashPattern=1 3;strokeWidth=2;rounded=0;" edge="1" parent="1">
          <mxGeometry width="50" height="50" relative="1" as="geometry">
            <mxPoint x="471.08" y="310" as="sourcePoint" />
            <mxPoint x="471.08" y="290" as="targetPoint" />
          </mxGeometry>
        </mxCell>
      </root>
    </mxGraphModel>
  </diagram>
</mxfile>
